<?xml version="1.0" encoding="UTF-8" standalone="no"?>
<svg
   xmlns:dc="http://purl.org/dc/elements/1.1/"
   xmlns:cc="http://creativecommons.org/ns#"
   xmlns:rdf="http://www.w3.org/1999/02/22-rdf-syntax-ns#"
   xmlns:svg="http://www.w3.org/2000/svg"
   xmlns="http://www.w3.org/2000/svg"
   xmlns:sodipodi="http://sodipodi.sourceforge.net/DTD/sodipodi-0.dtd"
   xmlns:inkscape="http://www.inkscape.org/namespaces/inkscape"
   inkscape:version="1.0 (4035a4fb49, 2020-05-01)"
   sodipodi:docname="menu.svg"
   xml:space="preserve"
   style="enable-background:new 0 0 384.97 384.97;"
   viewBox="0 0 384.97 384.97"
   y="0px"
   x="0px"
   id="Capa_1"
   version="1.1"><metadata
   id="metadata70"><rdf:RDF><cc:Work
       rdf:about=""><dc:format>image/svg+xml</dc:format><dc:type
         rdf:resource="http://purl.org/dc/dcmitype/StillImage" /></cc:Work></rdf:RDF></metadata><defs
   id="defs68" /><sodipodi:namedview
   inkscape:current-layer="g33"
   inkscape:window-maximized="1"
   inkscape:window-y="18"
   inkscape:window-x="-8"
   inkscape:cy="192.485"
   inkscape:cx="175.95394"
   inkscape:zoom="2.2079642"
   showgrid="false"
   id="namedview66"
   inkscape:window-height="987"
   inkscape:window-width="1680"
   inkscape:pageshadow="2"
   inkscape:pageopacity="0"
   guidetolerance="10"
   gridtolerance="10"
   objecttolerance="10"
   borderopacity="1"
   bordercolor="#666666"
   pagecolor="#ffffff" />
<g
   id="g33">
	<g
   style="stroke:#e95721;stroke-opacity:1;fill:#e95721;fill-opacity:1"
   id="Apps">
		<path
   style="stroke:#e95721;stroke-opacity:1;fill:#e95721;fill-opacity:1"
   id="path2"
   d="M72.182,0H24.061C10.767,0,0,10.779,0,24.061v48.121c0,13.293,10.767,24.061,24.061,24.061h48.121    c13.293,0,24.061-10.767,24.061-24.061V24.061C96.242,10.779,85.475,0,72.182,0z M72.182,72.182H24.061V24.061h48.121V72.182z" />
		<path
   style="stroke:#e95721;stroke-opacity:1;fill:#e95721;fill-opacity:1"
   id="path4"
   d="M216.545,0h-48.121c-13.293,0-24.061,10.779-24.061,24.061v48.121c0,13.293,10.767,24.061,24.061,24.061h48.121    c13.281,0,24.061-10.767,24.061-24.061V24.061C240.606,10.779,229.827,0,216.545,0z M216.545,72.182h-48.121V24.061h48.121V72.182    z" />
		<path
   style="stroke:#e95721;stroke-opacity:1;fill:#e95721;fill-opacity:1"
   id="path6"
   d="M360.909,0h-48.121c-13.293,0-24.061,10.779-24.061,24.061v48.121c0,13.293,10.767,24.061,24.061,24.061h48.121    c13.281,0,24.061-10.767,24.061-24.061V24.061C384.97,10.779,374.191,0,360.909,0z M360.909,72.182h-48.121V24.061h48.121V72.182z    " />
		<path
   style="stroke:#e95721;stroke-opacity:1;fill:#e95721;fill-opacity:1"
   id="path8"
   d="M72.182,144.364H24.061C10.767,144.364,0,155.131,0,168.424v48.121c0,13.293,10.767,24.061,24.061,24.061h48.121    c13.293,0,24.061-10.767,24.061-24.061v-48.121C96.242,155.143,85.475,144.364,72.182,144.364z M72.182,216.545H24.061v-48.121    h48.121V216.545z" />
		<path
   style="stroke:#e95721;stroke-opacity:1;fill:#e95721;fill-opacity:1"
   id="path10"
   d="M216.545,144.364h-48.121c-13.293,0-24.061,10.767-24.061,24.061v48.121c0,13.293,10.767,24.061,24.061,24.061h48.121    c13.281,0,24.061-10.767,24.061-24.061v-48.121C240.606,155.143,229.827,144.364,216.545,144.364z M216.545,216.545h-48.121    v-48.121h48.121V216.545z" />
		<path
   style="stroke:#e95721;stroke-opacity:1;fill:#e95721;fill-opacity:1"
   id="path12"
   d="M360.909,144.364h-48.121c-13.293,0-24.061,10.767-24.061,24.061v48.121c0,13.293,10.767,24.061,24.061,24.061h48.121    c13.281,0,24.061-10.767,24.061-24.061v-48.121C384.97,155.143,374.191,144.364,360.909,144.364z M360.909,216.545h-48.121    v-48.121h48.121V216.545z" />
		<path
   style="stroke:#e95721;stroke-opacity:1;fill:#e95721;fill-opacity:1"
   id="path14"
   d="M72.182,288.727H24.061C10.767,288.727,0,299.494,0,312.788v48.121c0,13.293,10.767,24.061,24.061,24.061h48.121    c13.293,0,24.061-10.767,24.061-24.061v-48.121C96.242,299.506,85.475,288.727,72.182,288.727z M72.182,360.909H24.061v-48.121    h48.121V360.909z" />
		<path
   style="stroke:#e95721;stroke-opacity:1;fill:#e95721;fill-opacity:1"
   id="path16"
   d="M216.545,288.727h-48.121c-13.293,0-24.061,10.767-24.061,24.061v48.121c0,13.293,10.767,24.061,24.061,24.061h48.121    c13.281,0,24.061-10.767,24.061-24.061v-48.121C240.606,299.506,229.827,288.727,216.545,288.727z M216.545,360.909h-48.121    v-48.121h48.121V360.909z" />
		<path
   style="stroke:#e95721;stroke-opacity:1;fill:#e95721;fill-opacity:1"
   id="path18"
   d="M360.909,288.727h-48.121c-13.293,0-24.061,10.767-24.061,24.061v48.121c0,13.293,10.767,24.061,24.061,24.061h48.121    c13.281,0,24.061-10.767,24.061-24.061v-48.121C384.97,299.506,374.191,288.727,360.909,288.727z M360.909,360.909h-48.121    v-48.121h48.121V360.909z" />
	</g>
	<g
   id="g21">
	</g>
	<g
   id="g23">
	</g>
	<g
   id="g25">
	</g>
	<g
   id="g27">
	</g>
	<g
   id="g29">
	</g>
	<g
   id="g31">
	</g>
</g>
<g
   id="g35">
</g>
<g
   id="g37">
</g>
<g
   id="g39">
</g>
<g
   id="g41">
</g>
<g
   id="g43">
</g>
<g
   id="g45">
</g>
<g
   id="g47">
</g>
<g
   id="g49">
</g>
<g
   id="g51">
</g>
<g
   id="g53">
</g>
<g
   id="g55">
</g>
<g
   id="g57">
</g>
<g
   id="g59">
</g>
<g
   id="g61">
</g>
<g
   id="g63">
</g>
</svg>
