<?xml version="1.0" encoding="UTF-8" standalone="no"?>
<svg
   xmlns:dc="http://purl.org/dc/elements/1.1/"
   xmlns:cc="http://creativecommons.org/ns#"
   xmlns:rdf="http://www.w3.org/1999/02/22-rdf-syntax-ns#"
   xmlns:svg="http://www.w3.org/2000/svg"
   xmlns="http://www.w3.org/2000/svg"
   xmlns:sodipodi="http://sodipodi.sourceforge.net/DTD/sodipodi-0.dtd"
   xmlns:inkscape="http://www.inkscape.org/namespaces/inkscape"
   inkscape:version="1.0 (4035a4fb49, 2020-05-01)"
   sodipodi:docname="notebook.svg"
   xml:space="preserve"
   style="enable-background:new 0 0 400 400;"
   viewBox="0 0 400 400"
   y="0px"
   x="0px"
   id="Capa_1"
   version="1.1"><metadata
   id="metadata49"><rdf:RDF><cc:Work
       rdf:about=""><dc:format>image/svg+xml</dc:format><dc:type
         rdf:resource="http://purl.org/dc/dcmitype/StillImage" /></cc:Work></rdf:RDF></metadata><defs
   id="defs47" /><sodipodi:namedview
   inkscape:current-layer="XMLID_1015_"
   inkscape:window-maximized="1"
   inkscape:window-y="18"
   inkscape:window-x="-8"
   inkscape:cy="200"
   inkscape:cx="182.82353"
   inkscape:zoom="2.125"
   showgrid="false"
   id="namedview45"
   inkscape:window-height="987"
   inkscape:window-width="1680"
   inkscape:pageshadow="2"
   inkscape:pageopacity="0"
   guidetolerance="10"
   gridtolerance="10"
   objecttolerance="10"
   borderopacity="1"
   bordercolor="#666666"
   pagecolor="#ffffff" />
<g
   id="XMLID_1015_">
	<polygon
   points="120,340 120,310 200,310 200,280 120,280 120,250 200,250 200,220    120,220 120,190 200,190 200,160 120,160 120,130 200,130 200,70 50,70 50,400 200,400 200,340  "
   style="fill:#e95721;fill-opacity:1"
   id="XMLID_1016_" />
	<polygon
   points="200,130 200,160 200,190 280,190 280,220 200,220 200,250 280,250    280,280 200,280 200,310 280,310 280,340 200,340 200,400 350,400 350,70 200,70  "
   style="fill:#e95721;fill-opacity:1"
   id="XMLID_1017_" />
	<polygon
   points="315,20 315,40 285,40 285,20 215,20 215,40 200,40 200,70 350,70 350,20     "
   style="fill:#5c0011;fill-opacity:1"
   id="XMLID_1018_" />
	<polygon
   points="200,40 185,40 185,20 115,20 115,40 85,40 85,20 50,20 50,70 200,70  "
   style="fill:#460011;fill-opacity:1"
   id="XMLID_1019_" />
	<rect
   height="30"
   width="80"
   style="fill:#FFFFFF;"
   y="130"
   x="120"
   id="XMLID_1020_" />
	<polygon
   points="120,220 200,220 280,220 280,190 200,190 120,190  "
   style="fill:#FFFFFF;"
   id="XMLID_1021_" />
	<polygon
   points="120,280 200,280 280,280 280,250 200,250 120,250  "
   style="fill:#FFFFFF;"
   id="XMLID_1022_" />
	<polygon
   points="120,340 200,340 280,340 280,310 200,310 120,310  "
   style="fill:#FFFFFF;"
   id="XMLID_1023_" />
	<polygon
   points="115,40 115,20 115,0 85,0 85,20 85,40  "
   style="fill:#565659;"
   id="XMLID_1024_" />
	<polygon
   points="200,40 215,40 215,20 215,0 185,0 185,20 185,40  "
   style="fill:#565659;"
   id="XMLID_1025_" />
	<polygon
   points="315,40 315,20 315,0 285,0 285,20 285,40  "
   style="fill:#565659;"
   id="XMLID_1026_" />
</g>
<g
   id="g14">
</g>
<g
   id="g16">
</g>
<g
   id="g18">
</g>
<g
   id="g20">
</g>
<g
   id="g22">
</g>
<g
   id="g24">
</g>
<g
   id="g26">
</g>
<g
   id="g28">
</g>
<g
   id="g30">
</g>
<g
   id="g32">
</g>
<g
   id="g34">
</g>
<g
   id="g36">
</g>
<g
   id="g38">
</g>
<g
   id="g40">
</g>
<g
   id="g42">
</g>
</svg>
